<svg width="261" height="36" viewBox="0 0 261 36" fill="none" xmlns="http://www.w3.org/2000/svg">
<g clip-path="url(#clip0_1511_1302)">
<path d="M0 33.2969H31.6474L29.8286 35.8169H0V33.2969Z" fill="#D40511"/>
<path d="M260.999 35.8169H222.258L224.259 33.2969H261.18V35.8169H260.999Z" fill="#D40511"/>
<path d="M0 28.6172H35.285L33.2843 31.1372H0L0 28.6172Z" fill="#D40511"/>
<path d="M0 23.9375H38.9226L36.9219 26.4575H0L0 23.9375Z" fill="#D40511"/>
<path d="M261.002 31.1372H225.898L227.899 28.6172H261.183V31.1372H261.002Z" fill="#D40511"/>
<path d="M231.352 23.9375H260.999V26.4575H229.352L231.352 23.9375Z" fill="#D40511"/>
<path d="M34.1953 35.8197L50.9284 13.6797H71.6629C74.0274 13.6797 74.0274 14.5797 72.7542 16.0197C71.6629 17.4597 69.6622 20.1597 68.5709 21.5997C68.0253 22.4997 66.934 23.7597 70.3897 23.7597H98.2176C96.035 26.9997 88.396 35.9997 74.9368 35.9997C64.0239 35.8197 34.1953 35.8197 34.1953 35.8197Z" fill="#D40511"/>
<path d="M130.046 23.9375L120.951 35.9975H97.125L106.219 23.9375H130.046Z" fill="#D40511"/>
<path d="M172.607 23.9375C172.607 23.9375 170.788 26.2775 170.061 27.3575C166.969 31.3175 169.697 35.9975 179.518 35.9975H218.077L227.171 23.9375H172.607Z" fill="#D40511"/>
<path d="M46.015 0.000312492L37.6484 10.9803H83.1188C85.4833 10.9803 85.4833 11.8803 84.2101 13.3203C83.1188 14.7603 81.1181 17.4603 80.0268 18.9003C79.4812 19.6203 78.3899 21.0603 81.8456 21.0603H100.398C100.398 21.0603 103.49 17.1003 105.854 13.6803C109.31 9.18031 106.218 -0.179688 94.0317 -0.179688C83.1188 0.000312492 46.015 0.000312492 46.015 0.000312492Z" fill="#D40511"/>
<path d="M166.785 21.06H108.219L124.224 0H148.233L139.139 12.06H149.87L158.964 0H182.972L166.785 21.06Z" fill="#D40511"/>
<path d="M216.078 0L200.073 21.06H174.609L190.615 0H216.078Z" fill="#D40511"/>
</g>
<defs>
<clipPath id="clip0_1511_1302">
<rect width="261" height="36" fill="white"/>
</clipPath>
</defs>
</svg>
