<svg width="78" height="93" viewBox="0 0 78 93" fill="none" xmlns="http://www.w3.org/2000/svg">
<g clip-path="url(#clip0_1511_1339)">
<path d="M11.6058 76.8391C5.01339 71.4316 1.53125 63.6476 1.53125 54.351V10.1591C11.9415 4.63024 24.5468 1.82812 38.9991 1.82812C53.4514 1.82812 66.0582 4.63024 76.467 10.1591V54.351C76.467 63.6476 72.9848 71.426 66.3924 76.8391C60.3614 81.7916 41.1984 90.2161 38.9977 91.1748C36.7998 90.2161 17.6369 81.793 11.6058 76.8391Z" fill="#330000"/>
<path d="M74.4162 9.63854C69.5997 9.1906 64.5965 8.89476 59.5001 8.89476C40.599 8.89476 20.3357 12.9654 3.58382 28.3588V54.6705C3.58382 63.2401 6.747 70.3961 12.7572 75.304C18.064 79.63 34.3952 87.0399 39 89.0759C43.5463 87.0706 59.8358 79.7583 65.2359 75.304C71.2836 70.311 74.4162 63.321 74.4162 54.6705V9.63854ZM7.04646 51.9326V30.5637H13.8283V52.234C13.8283 54.1626 14.2935 57.0177 17.4038 57.0177C18.5309 57.0633 19.6461 56.7719 20.6073 56.1804V30.5637H27.3808V60.0556C24.3217 61.9685 20.7607 62.9192 17.1572 62.7852C10.4436 62.7852 7.0395 59.1346 7.0395 51.9326M37.6573 76.5976H30.8713V32.2941C33.6163 30.6049 36.7973 29.7638 40.0168 29.8757C48.1163 29.8757 52.5664 36.0326 52.5664 45.9418C52.5664 55.8511 48.2486 62.668 40.7132 62.668C39.6818 62.6866 38.6531 62.5564 37.6587 62.2814L37.6573 76.5976ZM37.6573 56.726C38.3618 56.9904 39.1071 57.1293 39.8594 57.1363C43.7594 57.1363 45.6286 53.5458 45.6286 46.1121C45.6286 38.497 43.9976 35.3474 40.0572 35.3474C39.2305 35.3405 38.4115 35.5074 37.6531 35.8372L37.6573 56.726ZM54.1041 38.7356C54.1467 36.3538 55.1277 34.0855 56.8332 32.4257C58.5387 30.7658 60.8303 29.8492 63.2079 29.8757C65.8692 29.7344 68.4981 30.5138 70.6541 32.0834V37.996C69.0561 36.3256 66.8832 35.3276 64.577 35.205C62.6535 35.1883 60.652 36.0353 60.5865 38.4523C60.521 40.9265 62.5184 41.9033 65.0436 43.3909C70.7112 46.7289 71.8074 49.7291 71.6764 53.6937C71.5469 58.0406 68.5564 62.788 61.8526 62.788C59.2238 62.7584 56.6499 62.0303 54.3939 60.678V54.4165C56.1861 56.039 58.4694 57.0128 60.879 57.1824C63.368 57.1949 65.006 55.766 64.9475 53.395C64.896 51.2614 63.694 50.1017 60.7091 48.3448C55.114 45.0571 54.1083 42.3513 54.0986 38.7356M10.4868 78.0754C3.62143 72.4419 0 64.3467 0 54.6705V8.67148C10.835 2.91654 23.9571 0 39 0C54.0429 0 67.165 2.91654 78 8.67148V54.6705C78 64.3467 74.3786 72.4419 67.5132 78.0768C61.237 83.2317 41.2899 91.9995 39 92.9972C36.7101 91.9995 16.763 83.2317 10.4868 78.0754ZM63.8945 87.7167V91.7092H64.6133V90.043H64.7149C64.7693 90.1239 65.7972 91.7092 65.7972 91.7092H66.6677C66.6677 91.7092 65.5757 90.1086 65.4643 89.9579C65.7133 89.9153 65.9389 89.7851 66.1006 89.5907C66.2622 89.3962 66.3492 89.1503 66.346 88.8973C66.3493 88.7287 66.316 88.5614 66.2483 88.4069C66.1807 88.2525 66.0803 88.1147 65.9541 88.003C65.8279 87.8913 65.679 87.8085 65.5177 87.7603C65.3564 87.7121 65.1866 87.6996 65.02 87.7237L63.8945 87.7167ZM64.942 88.3C65.5534 88.3 65.6384 88.6001 65.6384 88.8582C65.6384 89.2322 65.4782 89.4848 64.708 89.4848H64.6146V88.2973L64.942 88.3ZM67.7555 89.7234C67.7544 90.2577 67.5953 90.7796 67.2983 91.2233C67.0013 91.6671 66.5798 92.0126 66.0868 92.2165C65.5939 92.4203 65.0518 92.4732 64.5288 92.3685C64.0059 92.2638 63.5257 92.0062 63.1488 91.6282C62.772 91.2502 62.5154 90.7688 62.4114 90.2449C62.3074 89.7208 62.3608 89.1777 62.5647 88.6841C62.7687 88.1905 63.114 87.7684 63.5572 87.4713C64.0004 87.1742 64.5215 87.0154 65.0548 87.0148C65.4098 87.0145 65.7614 87.0843 66.0894 87.2203C66.4174 87.3563 66.7154 87.5559 66.9663 87.8075C67.2172 88.0591 67.4161 88.3579 67.5515 88.6867C67.6869 89.0154 67.7563 89.3678 67.7555 89.7234ZM65.0464 86.4371C64.3992 86.4379 63.7667 86.6309 63.2289 86.9916C62.691 87.3524 62.272 87.8647 62.0246 88.464C61.7772 89.0632 61.7127 89.7224 61.839 90.3584C61.9654 90.9944 62.2771 91.5786 62.7346 92.0372C63.1922 92.4958 63.7752 92.8083 64.4099 92.9352C65.0446 93.0621 65.7026 92.9977 66.3009 92.7501C66.8991 92.5025 67.4106 92.0829 67.7709 91.5442C68.1312 91.0055 68.3241 90.3719 68.3252 89.7234C68.3241 88.8524 67.9784 88.0174 67.3637 87.4014C66.7491 86.7853 65.9158 86.4386 65.0464 86.4371Z" fill="#FFBE00"/>
</g>
<defs>
<clipPath id="clip0_1511_1339">
<rect width="78" height="93" fill="white"/>
</clipPath>
</defs>
</svg>
